<svg width="40" height="40" viewBox="0 0 40 40" fill="none" xmlns="http://www.w3.org/2000/svg">
<path opacity="0.1" fill-rule="evenodd" clip-rule="evenodd" d="M19.9269 38.691C30.1565 38.691 38.4492 30.3983 38.4492 20.1688C38.4492 9.93919 30.1565 1.64648 19.9269 1.64648C9.69737 1.64648 1.40466 9.93919 1.40466 20.1688C1.40466 30.3983 9.69737 38.691 19.9269 38.691Z" stroke="#0A142F" stroke-width="1.58762"/>
<path d="M21.6131 15.4274H23.3155C23.4721 15.4274 23.5992 15.3076 23.5992 15.16V13.5559C23.5992 13.4083 23.4721 13.2886 23.3155 13.2886H21.6131C19.8926 13.2886 18.4922 14.6077 18.4922 16.2295V18.1009H16.5061C16.3495 18.1009 16.2224 18.2207 16.2224 18.3683V19.9724C16.2224 20.12 16.3495 20.2398 16.5061 20.2398H18.4922V25.8542C18.4922 26.0018 18.6193 26.1215 18.7759 26.1215H20.4782C20.6349 26.1215 20.762 26.0018 20.762 25.8542V20.2398H22.748C22.87 20.2398 22.9784 20.166 23.0176 20.0569L23.585 18.4528C23.6139 18.3715 23.5992 18.2817 23.5458 18.2116C23.4919 18.1421 23.4068 18.1009 23.3155 18.1009H20.762V16.2295C20.762 15.7873 21.1439 15.4274 21.6131 15.4274Z" fill="#0A142F"/>
</svg>
