<svg width="1595" height="772" viewBox="0 0 1595 772" fill="none" xmlns="http://www.w3.org/2000/svg">
<path d="M38.1292 226.517V226.517C85.7114 302.583 177.925 337.931 264.16 313.16L409.902 271.296C547.433 231.791 695.597 268.303 799.025 367.188L997.717 557.149C1063.13 619.689 1163.44 627.774 1238.03 576.517V576.517C1298.53 534.936 1377.51 531.691 1441.22 568.167L1550.13 630.517" stroke="url(#paint0_linear_61_151)" stroke-opacity="0.3" stroke-width="2"/>
<path d="M38.1292 220.517V220.517C85.7114 296.583 177.925 331.931 264.16 307.16L409.902 265.296C547.433 225.791 695.597 262.303 799.025 361.188L997.717 551.149C1063.13 613.689 1163.44 621.774 1238.03 570.517V570.517C1298.53 528.936 1377.51 525.691 1441.22 562.167L1550.13 624.517" stroke="url(#paint1_linear_61_151)" stroke-opacity="0.3" stroke-width="2"/>
<path d="M38.1292 214.517V214.517C85.7114 290.583 177.925 325.931 264.16 301.16L409.902 259.296C547.433 219.791 695.597 256.303 799.025 355.188L997.717 545.149C1063.13 607.689 1163.44 615.774 1238.03 564.517V564.517C1298.53 522.936 1377.51 519.691 1441.22 556.167L1550.13 618.517" stroke="url(#paint2_linear_61_151)" stroke-opacity="0.3" stroke-width="2"/>
<path d="M38.1292 208.517V208.517C85.7114 284.583 177.925 319.931 264.16 295.16L409.902 253.296C547.433 213.791 695.597 250.303 799.025 349.188L997.717 539.149C1063.13 601.689 1163.44 609.774 1238.03 558.517V558.517C1298.53 516.936 1377.51 513.691 1441.22 550.167L1550.13 612.517" stroke="url(#paint3_linear_61_151)" stroke-opacity="0.3" stroke-width="2"/>
<path d="M38.1292 202.517V202.517C85.7114 278.583 177.925 313.931 264.16 289.16L409.902 247.296C547.433 207.791 695.597 244.303 799.025 343.188L997.717 533.149C1063.13 595.689 1163.44 603.774 1238.03 552.517V552.517C1298.53 510.936 1377.51 507.691 1441.22 544.167L1550.13 606.517" stroke="url(#paint4_linear_61_151)" stroke-opacity="0.3" stroke-width="2"/>
<path d="M38.1292 196.517V196.517C85.7114 272.583 177.925 307.931 264.16 283.16L409.902 241.296C547.433 201.791 695.597 238.303 799.025 337.188L997.717 527.149C1063.13 589.689 1163.44 597.774 1238.03 546.517V546.517C1298.53 504.936 1377.51 501.691 1441.22 538.167L1550.13 600.517" stroke="url(#paint5_linear_61_151)" stroke-opacity="0.3" stroke-width="2"/>
<path d="M38.1292 190.517V190.517C85.7114 266.583 177.925 301.931 264.16 277.16L409.902 235.296C547.433 195.791 695.597 232.303 799.025 331.188L997.717 521.149C1063.13 583.689 1163.44 591.774 1238.03 540.517V540.517C1298.53 498.936 1377.51 495.691 1441.22 532.167L1550.13 594.517" stroke="url(#paint6_linear_61_151)" stroke-opacity="0.3" stroke-width="2"/>
<path d="M38.1292 184.517V184.517C85.7114 260.583 177.925 295.931 264.16 271.16L409.902 229.296C547.433 189.791 695.597 226.303 799.025 325.188L997.717 515.149C1063.13 577.689 1163.44 585.774 1238.03 534.517V534.517C1298.53 492.936 1377.51 489.691 1441.22 526.167L1550.13 588.517" stroke="url(#paint7_linear_61_151)" stroke-opacity="0.3" stroke-width="2"/>
<path d="M38.1292 178.517V178.517C85.7114 254.583 177.925 289.931 264.16 265.16L409.902 223.296C547.433 183.791 695.597 220.303 799.025 319.188L997.717 509.149C1063.13 571.689 1163.44 579.774 1238.03 528.517V528.517C1298.53 486.936 1377.51 483.691 1441.22 520.167L1550.13 582.517" stroke="url(#paint8_linear_61_151)" stroke-opacity="0.3" stroke-width="2"/>
<path d="M38.1292 172.517V172.517C85.7114 248.583 177.925 283.931 264.16 259.16L409.902 217.296C547.433 177.791 695.597 214.303 799.025 313.188L997.717 503.149C1063.13 565.689 1163.44 573.774 1238.03 522.517V522.517C1298.53 480.936 1377.51 477.691 1441.22 514.167L1550.13 576.517" stroke="url(#paint9_linear_61_151)" stroke-opacity="0.3" stroke-width="2"/>
<path d="M38.1292 166.517V166.517C85.7114 242.583 177.925 277.931 264.16 253.16L409.902 211.296C547.433 171.791 695.597 208.303 799.025 307.188L997.717 497.149C1063.13 559.689 1163.44 567.774 1238.03 516.517V516.517C1298.53 474.936 1377.51 471.691 1441.22 508.167L1550.13 570.517" stroke="url(#paint10_linear_61_151)" stroke-opacity="0.3" stroke-width="2"/>
<defs>
<linearGradient id="paint0_linear_61_151" x1="838.445" y1="262.661" x2="756.326" y2="570" gradientUnits="userSpaceOnUse">
<stop/>
<stop offset="1" stop-color="#666666"/>
</linearGradient>
<linearGradient id="paint1_linear_61_151" x1="838.445" y1="256.661" x2="756.326" y2="564" gradientUnits="userSpaceOnUse">
<stop/>
<stop offset="1" stop-color="#666666"/>
</linearGradient>
<linearGradient id="paint2_linear_61_151" x1="838.445" y1="250.661" x2="756.326" y2="558" gradientUnits="userSpaceOnUse">
<stop/>
<stop offset="1" stop-color="#666666"/>
</linearGradient>
<linearGradient id="paint3_linear_61_151" x1="838.445" y1="244.661" x2="756.326" y2="552" gradientUnits="userSpaceOnUse">
<stop/>
<stop offset="1" stop-color="#666666"/>
</linearGradient>
<linearGradient id="paint4_linear_61_151" x1="838.445" y1="238.661" x2="756.326" y2="546" gradientUnits="userSpaceOnUse">
<stop/>
<stop offset="1" stop-color="#666666"/>
</linearGradient>
<linearGradient id="paint5_linear_61_151" x1="838.445" y1="232.661" x2="756.326" y2="540" gradientUnits="userSpaceOnUse">
<stop/>
<stop offset="1" stop-color="#666666"/>
</linearGradient>
<linearGradient id="paint6_linear_61_151" x1="838.445" y1="226.661" x2="756.326" y2="534" gradientUnits="userSpaceOnUse">
<stop/>
<stop offset="1" stop-color="#666666"/>
</linearGradient>
<linearGradient id="paint7_linear_61_151" x1="838.445" y1="220.661" x2="756.326" y2="528" gradientUnits="userSpaceOnUse">
<stop/>
<stop offset="1" stop-color="#666666"/>
</linearGradient>
<linearGradient id="paint8_linear_61_151" x1="838.445" y1="214.661" x2="756.326" y2="522" gradientUnits="userSpaceOnUse">
<stop/>
<stop offset="1" stop-color="#666666"/>
</linearGradient>
<linearGradient id="paint9_linear_61_151" x1="838.445" y1="208.661" x2="756.326" y2="516" gradientUnits="userSpaceOnUse">
<stop/>
<stop offset="1" stop-color="#666666"/>
</linearGradient>
<linearGradient id="paint10_linear_61_151" x1="838.445" y1="202.661" x2="756.326" y2="510" gradientUnits="userSpaceOnUse">
<stop/>
<stop offset="1" stop-color="#666666"/>
</linearGradient>
</defs>
</svg>
