<svg width="40" height="40" viewBox="0 0 40 40" fill="none" xmlns="http://www.w3.org/2000/svg">
<path opacity="0.1" fill-rule="evenodd" clip-rule="evenodd" d="M20.0062 38.691C30.2357 38.691 38.5284 30.3983 38.5284 20.1688C38.5284 9.93919 30.2357 1.64648 20.0062 1.64648C9.77659 1.64648 1.48389 9.93919 1.48389 20.1688C1.48389 30.3983 9.77659 38.691 20.0062 38.691Z" stroke="#0A142F" stroke-width="1.58762"/>
<path d="M15.7556 16.4302C16.6231 16.4302 17.3263 15.727 17.3263 14.8595C17.3263 13.992 16.6231 13.2888 15.7556 13.2888C14.8882 13.2888 14.1849 13.992 14.1849 14.8595C14.1849 15.727 14.8882 16.4302 15.7556 16.4302Z" fill="#0A142F"/>
<path d="M17.0635 17.4783H14.4465C14.3021 17.4783 14.1848 17.5955 14.1848 17.74V25.591C14.1848 25.7355 14.3021 25.8527 14.4465 25.8527H17.0635C17.208 25.8527 17.3252 25.7355 17.3252 25.591V17.74C17.3252 17.5955 17.208 17.4783 17.0635 17.4783Z" fill="#0A142F"/>
<path d="M24.8621 17.0427C23.7436 16.6596 22.3445 16.9961 21.5055 17.5996C21.4767 17.4871 21.3742 17.4033 21.2522 17.4033H18.6352C18.4907 17.4033 18.3735 17.5206 18.3735 17.665V25.5161C18.3735 25.6605 18.4907 25.7778 18.6352 25.7778H21.2522C21.3967 25.7778 21.5139 25.6605 21.5139 25.5161V19.8738C21.9368 19.5095 22.4817 19.3933 22.9276 19.5828C23.3599 19.7654 23.6075 20.2114 23.6075 20.8054V25.5161C23.6075 25.6605 23.7248 25.7778 23.8692 25.7778H26.4862C26.6307 25.7778 26.7479 25.6605 26.7479 25.5161V20.2784C26.7181 18.1277 25.7064 17.3316 24.8621 17.0427Z" fill="#0A142F"/>
</svg>
