<svg width="81" height="21" viewBox="0 0 81 21" fill="none" xmlns="http://www.w3.org/2000/svg">
<path d="M21.6897 8.45776V7.20337H27.5992V8.45776H25.3963V14.3981H23.8926V8.45776H21.6897Z" fill="white"/>
<path d="M31.004 14.5037C30.452 14.5037 29.9758 14.3906 29.5748 14.1644C29.1739 13.9382 28.8654 13.6182 28.6495 13.203C28.4348 12.7866 28.3282 12.2944 28.3282 11.725C28.3282 11.1698 28.4348 10.6833 28.6495 10.265C28.8654 9.84535 29.1694 9.51826 29.562 9.28306C29.954 9.04851 30.4154 8.93091 30.9449 8.93091C31.4192 8.93091 31.8478 9.03244 32.2301 9.23422C32.6138 9.43472 32.9177 9.73932 33.1427 10.1467C33.3689 10.5529 33.482 11.0612 33.482 11.671V12.0823H29.8062V12.0874C29.8062 12.4904 29.9154 12.8072 30.1352 13.0385C30.3563 13.2699 30.6544 13.3855 31.0297 13.3855C31.2797 13.3855 31.4956 13.3335 31.6775 13.2287C31.8606 13.1227 31.9898 12.9665 32.0656 12.7609L33.4486 12.8534C33.3438 13.354 33.0771 13.7544 32.6491 14.0539C32.2205 14.354 31.6724 14.5037 31.004 14.5037ZM29.8062 11.1544H32.0733C32.0695 10.8343 31.966 10.5702 31.7623 10.3627C31.558 10.1538 31.2932 10.0491 30.968 10.0491C30.6352 10.0491 30.3627 10.157 30.1506 10.3729C29.9379 10.5876 29.8229 10.8478 29.8062 11.1544Z" fill="white"/>
<path d="M38.9478 10.54L37.5777 10.6248C37.5398 10.452 37.4447 10.3035 37.2924 10.1802C37.1414 10.0555 36.9358 9.99251 36.6755 9.99251C36.4442 9.99251 36.2475 10.0414 36.0869 10.139C35.9256 10.2354 35.8465 10.3646 35.8504 10.5272C35.8465 10.6557 35.8973 10.7649 36.002 10.8536C36.1062 10.9429 36.2835 11.0143 36.5341 11.067L37.5109 11.2649C38.5494 11.4776 39.0693 11.9641 39.0712 12.7249C39.0712 13.0797 38.9671 13.3907 38.7602 13.658C38.5526 13.9241 38.2679 14.131 37.9068 14.2801C37.5469 14.4291 37.1337 14.5037 36.6678 14.5037C35.9532 14.5037 35.3832 14.3546 34.9584 14.0564C34.535 13.757 34.2882 13.3495 34.2181 12.8355L35.691 12.7583C35.7373 12.9781 35.8452 13.1439 36.0149 13.257C36.1858 13.3688 36.4043 13.4241 36.6704 13.4241C36.9338 13.4241 37.1459 13.3727 37.3053 13.2699C37.4659 13.167 37.5475 13.036 37.5495 12.8766C37.5424 12.6093 37.3117 12.4306 36.858 12.3394L35.9224 12.1543C34.8788 11.9454 34.3582 11.4313 34.3621 10.612C34.3602 10.0915 34.5684 9.68084 34.9867 9.38074C35.4044 9.08128 35.959 8.93091 36.6498 8.93091C37.3316 8.93091 37.8689 9.07485 38.2615 9.36275C38.6535 9.65064 38.8823 10.0433 38.9478 10.54Z" fill="white"/>
<path d="M42.8859 9.00266V10.126H41.8705V12.7401C41.8705 12.9458 41.9168 13.0859 42.0093 13.1591C42.1031 13.2311 42.2259 13.2671 42.3769 13.2671C42.4469 13.2671 42.517 13.2613 42.5877 13.2491C42.6577 13.2356 42.7117 13.2253 42.7496 13.2182L42.9835 14.3313C42.9096 14.3557 42.8042 14.3827 42.6674 14.4135C42.5318 14.4456 42.3673 14.4656 42.1738 14.4726C41.6289 14.4945 41.1919 14.3769 40.8629 14.1179C40.5339 13.8596 40.3706 13.465 40.3745 12.9355V10.126H39.6368V9.00266H40.3745V7.70972H41.8705V9.00266H42.8859Z" fill="white"/>
<path d="M43.8595 14.397V9.00162H45.3581V14.397H43.8595ZM44.5381 8.30502C44.3183 8.30502 44.1294 8.23048 43.97 8.08139C43.8106 7.93231 43.7309 7.7543 43.7309 7.54673C43.7309 7.33788 43.8106 7.15988 43.97 7.01208C44.1294 6.86492 44.3183 6.79102 44.5381 6.79102C44.7604 6.79102 44.9519 6.86492 45.1113 7.01208C45.2707 7.15988 45.3503 7.33788 45.3503 7.54673C45.3503 7.7543 45.2707 7.93231 45.1113 8.08139C44.9519 8.23048 44.7604 8.30502 44.5381 8.30502Z" fill="white"/>
<path d="M46.5483 14.3983V9.00288H47.9749V9.95396H48.0391C48.1522 9.63522 48.3399 9.38524 48.6021 9.20338C48.8655 9.02216 49.1791 8.93091 49.5429 8.93091C49.913 8.93091 50.2273 9.02345 50.4862 9.20852C50.7465 9.39231 50.9206 9.64036 51.008 9.95396H51.0646C51.1738 9.6455 51.3737 9.39809 51.6635 9.21109C51.9527 9.02473 52.2958 8.93091 52.6917 8.93091C53.1936 8.93091 53.6023 9.09156 53.9178 9.41159C54.2327 9.73032 54.3908 10.1827 54.3908 10.7688V14.3983H52.8973V11.0644C52.8973 10.7649 52.8176 10.54 52.6583 10.3909C52.4989 10.2406 52.2997 10.1647 52.0619 10.1647C51.7895 10.1647 51.5768 10.2515 51.4244 10.4244C51.2734 10.5979 51.1982 10.8241 51.1982 11.103V14.3983H49.7459V11.0336C49.7459 10.7682 49.6701 10.5574 49.5197 10.4012C49.3687 10.2438 49.1701 10.1647 48.9234 10.1647C48.6747 10.1647 48.4665 10.256 48.2988 10.4372C48.1304 10.6191 48.0468 10.86 48.0468 11.1595V14.3983H46.5483Z" fill="white"/>
<path d="M58.0111 14.5037C57.4643 14.5037 56.9919 14.3874 56.5948 14.1541C56.1989 13.9215 55.8931 13.5957 55.6771 13.1773C55.4625 12.7596 55.3558 12.2738 55.3558 11.7199C55.3558 11.1634 55.4625 10.6756 55.6771 10.2573C55.8931 9.83957 56.1989 9.51376 56.5948 9.28049C56.9919 9.04786 57.4643 8.93091 58.0111 8.93091C58.5561 8.93091 59.0271 9.04786 59.4249 9.28049C59.822 9.51376 60.1279 9.83957 60.3425 10.2573C60.5585 10.6756 60.6664 11.1634 60.6664 11.7199C60.6664 12.2738 60.5585 12.7596 60.3425 13.1773C60.1279 13.5957 59.822 13.9215 59.4249 14.1541C59.0271 14.3874 58.5561 14.5037 58.0111 14.5037ZM58.0188 13.3444C58.389 13.3444 58.6692 13.1902 58.8594 12.8817C59.0496 12.572 59.1447 12.1813 59.1447 11.7096C59.1447 11.2405 59.0496 10.8504 58.8594 10.54C58.6692 10.2284 58.389 10.0722 58.0188 10.0722C57.6416 10.0722 57.3563 10.2284 57.1629 10.54C56.9707 10.8504 56.875 11.2405 56.875 11.7096C56.875 12.1813 56.9707 12.572 57.1629 12.8817C57.3563 13.1902 57.6416 13.3444 58.0188 13.3444Z" fill="white"/>
<path d="M63.1398 11.2777V14.3983H61.6412V9.00288H63.0678V9.95396H63.1321C63.2536 9.64036 63.4541 9.39231 63.7336 9.20852C64.0144 9.02345 64.3544 8.93091 64.7541 8.93091C65.3157 8.93091 65.7668 9.11277 66.1061 9.47585C66.4467 9.83764 66.6177 10.3331 66.6177 10.9616V14.3983H65.1217V11.2289C65.1229 10.8986 65.0381 10.6403 64.8672 10.4552C64.6956 10.2688 64.4598 10.175 64.1603 10.175C63.8583 10.175 63.6134 10.2721 63.4251 10.4655C63.2362 10.6596 63.1411 10.9301 63.1398 11.2777Z" fill="white"/>
<path d="M67.7897 14.397V9.00162H69.2883V14.397H67.7897ZM68.4684 8.30502C68.2486 8.30502 68.0596 8.23048 67.9003 8.08139C67.7409 7.93231 67.6612 7.7543 67.6612 7.54673C67.6612 7.33788 67.7409 7.15988 67.9003 7.01208C68.0596 6.86492 68.2486 6.79102 68.4684 6.79102C68.6907 6.79102 68.8822 6.86492 69.0416 7.01208C69.2009 7.15988 69.2806 7.33788 69.2806 7.54673C69.2806 7.7543 69.2009 7.93231 69.0416 8.08139C68.8822 8.23048 68.6907 8.30502 68.4684 8.30502Z" fill="white"/>
<path d="M72.021 14.5011C71.505 14.5011 71.0777 14.3668 70.7384 14.0976C70.3991 13.827 70.2294 13.4254 70.2294 12.892C70.2294 12.4897 70.3232 12.1736 70.5122 11.9435C70.7024 11.7141 70.9517 11.5464 71.2602 11.4397C71.5686 11.3317 71.9009 11.2617 72.2575 11.2289C72.7253 11.1826 73.0595 11.1338 73.26 11.0824C73.4618 11.031 73.5633 10.9179 73.5633 10.7431V10.7225C73.5633 10.5002 73.4926 10.328 73.3525 10.2059C73.2137 10.0844 73.0165 10.0234 72.7613 10.0234C72.4921 10.0234 72.2781 10.0825 72.1187 10.2007C71.9593 10.3177 71.854 10.4655 71.8025 10.6454L70.4196 10.5323C70.5224 10.0407 70.7776 9.65064 71.1856 9.36275C71.595 9.07485 72.1226 8.93091 72.769 8.93091C73.17 8.93091 73.544 8.99453 73.8923 9.12112C74.2419 9.24836 74.5234 9.44629 74.738 9.7149C74.952 9.98223 75.0593 10.3305 75.0593 10.7585V14.3983H73.6404V13.6503H73.5993C73.4669 13.9009 73.2703 14.1053 73.0081 14.2646C72.7472 14.4221 72.4182 14.5011 72.021 14.5011ZM72.4503 13.4678C72.7774 13.4678 73.0467 13.3727 73.2574 13.1825C73.4682 12.991 73.5736 12.7532 73.5736 12.4704V11.8972C73.5151 11.9371 73.4245 11.9718 73.3011 12.0026C73.1777 12.0335 73.0467 12.0605 72.9078 12.0823C72.769 12.1048 72.6444 12.1234 72.5351 12.1389C72.2729 12.1768 72.0609 12.2507 71.9002 12.3599C71.7389 12.4698 71.6586 12.6298 71.6586 12.8406C71.6586 13.0482 71.7331 13.205 71.8822 13.311C72.0313 13.4157 72.2202 13.4678 72.4503 13.4678Z" fill="white"/>
<path d="M77.722 7.20337V14.3981H76.2234V7.20337H77.722Z" fill="white"/>
<path d="M10.1034 3.27441C5.91356 3.27441 2.51732 6.67129 2.51732 10.8605C2.51732 15.0504 5.91356 18.4466 10.1034 18.4466C14.2927 18.4466 17.6895 15.0497 17.6895 10.8605C17.6895 6.67129 14.2927 3.27441 10.1034 3.27441ZM8.24497 12.8976C8.24497 13.3076 7.91274 13.6392 7.50339 13.6392C7.0934 13.6392 6.76181 13.3076 6.76181 12.8976V9.73594C6.76181 9.32595 7.0934 8.99371 7.50339 8.99371C7.91274 8.99371 8.24497 9.32595 8.24497 9.73594V12.8976ZM13.4836 12.8443C13.4836 13.4239 13.1449 13.6315 12.5653 13.6315H9.89843C9.31879 13.6315 8.84903 13.1617 8.84903 12.5821V9.95893C8.84903 9.95893 8.79698 9.52259 9.28023 9.1126C9.55334 8.88061 9.95884 8.43785 10.2422 7.90062C10.8052 6.83323 11.1419 6.52221 11.3983 6.60575C12.3481 6.91356 11.8732 8.32154 11.5667 8.90953H12.4342C13.0132 8.90953 13.4836 9.37929 13.4836 9.95893V12.8443Z" fill="white"/>
</svg>
