<svg width="40" height="40" viewBox="0 0 40 40" fill="none" xmlns="http://www.w3.org/2000/svg">
<path opacity="0.1" fill-rule="evenodd" clip-rule="evenodd" d="M19.8476 38.691C30.0772 38.691 38.3699 30.3983 38.3699 20.1688C38.3699 9.93919 30.0772 1.64648 19.8476 1.64648C9.61802 1.64648 1.32532 9.93919 1.32532 20.1688C1.32532 30.3983 9.61802 38.691 19.8476 38.691Z" stroke="#0A142F" stroke-width="1.58762"/>
<path d="M25.902 16.7443C25.816 16.6472 25.6775 16.6227 25.5638 16.6827C25.4931 16.7199 25.3602 16.7687 25.2024 16.817C25.4015 16.5448 25.5615 16.24 25.6322 15.966C25.6628 15.8479 25.6181 15.7234 25.5208 15.653C25.4236 15.5832 25.294 15.5832 25.1968 15.653C25.0435 15.763 24.3038 16.0934 23.836 16.2004C22.779 15.2482 21.5489 15.1493 20.2702 15.9171C19.2307 16.5413 19.0045 17.8106 19.0486 18.5843C16.6693 18.3487 15.1904 17.0561 14.3579 15.9863C14.2997 15.9113 14.2058 15.8717 14.1175 15.8776C14.0248 15.8845 13.9411 15.9375 13.8936 16.0195C13.5 16.703 13.3908 17.4587 13.5791 18.205C13.6821 18.6122 13.8619 18.9711 14.0706 19.262C13.9705 19.2114 13.8738 19.148 13.7827 19.0723C13.699 19.0014 13.582 18.988 13.483 19.0351C13.3846 19.0834 13.3218 19.1858 13.3218 19.298C13.3218 20.5796 14.1011 21.4347 14.829 21.8814C14.7114 21.8669 14.5887 21.8401 14.4648 21.8012C14.3585 21.768 14.2431 21.8012 14.1696 21.8872C14.0961 21.9728 14.0785 22.0949 14.1243 22.199C14.5332 23.1292 15.308 23.7691 16.2667 24.0012C15.4296 24.5067 14.3093 24.7545 13.2834 24.6329C13.1504 24.6137 13.0238 24.7004 12.9819 24.8319C12.9401 24.9634 12.9949 25.1076 13.112 25.1751C14.6684 26.0738 16.0755 26.3949 17.2914 26.3949C19.0611 26.3949 20.4269 25.7155 21.2582 25.1472C23.4995 23.6173 24.8965 20.8704 24.7019 18.4127C25.061 18.1398 25.5983 17.6361 25.9314 17.0945C26.0004 16.9851 25.988 16.8409 25.902 16.7443Z" fill="#0A142F"/>
</svg>
