<svg width="89" height="73" viewBox="0 0 89 73" fill="none" xmlns="http://www.w3.org/2000/svg">
<g filter="url(#filter0_d_61_77)">
<path d="M69.7951 33.215C78.8787 33.215 85 39.6677 85 49.2286C85 57.8323 77.9646 65 68.4355 65C57.9981 65 50.2857 56.3964 50.2857 43.2545C50.2857 13.3841 71.6119 1.43591 85 0V13.1418C75.9222 14.8141 65.7162 24.1327 65.2591 34.4145C65.7162 34.1782 67.5271 33.215 69.7951 33.215ZM23.5152 33.215C32.5872 33.215 38.7143 39.6677 38.7143 49.2286C38.7143 57.8323 31.6789 65 22.1498 65C11.7124 65 4 56.3964 4 43.2545C4 13.3841 25.3261 1.43591 38.7143 0V13.1418C29.6365 14.8141 19.4305 24.1327 18.9734 34.4145C19.4305 34.1782 21.2414 33.215 23.5152 33.215Z" fill="white"/>
<path d="M50.5357 43.2545C50.5357 13.7436 71.4454 1.83872 84.75 0.279624V12.9349C80.2124 13.8256 75.4349 16.578 71.7182 20.3747C67.9452 24.2288 65.2414 29.1842 65.0094 34.4034L64.9902 34.8351L65.374 34.6366L65.4021 34.622C65.8971 34.3656 67.6353 33.465 69.7951 33.465C74.2753 33.465 78.0086 35.0549 80.6226 37.8086C83.2376 40.5635 84.75 44.5019 84.75 49.2286C84.75 57.6876 77.8332 64.75 68.4355 64.75C63.2901 64.75 58.8222 62.6313 55.6368 58.8933C52.4494 55.1529 50.5357 49.7774 50.5357 43.2545ZM4.25 43.2545C4.25 13.7436 25.1597 1.83872 38.4643 0.279625V12.9349C33.9267 13.8256 29.1492 16.578 25.4324 20.3747C21.6595 24.2288 18.9557 29.1842 18.7237 34.4034L18.7045 34.8351L19.0883 34.6366C19.0971 34.632 19.1065 34.6272 19.1163 34.6221C19.6112 34.3657 21.3495 33.465 23.5152 33.465C27.9895 33.465 31.7214 35.0548 34.3354 37.8086C36.9505 40.5635 38.4643 44.502 38.4643 49.2286C38.4643 57.6876 31.5475 64.75 22.1498 64.75C17.0044 64.75 12.5365 62.6313 9.35114 58.8933C6.1637 55.1529 4.25 49.7774 4.25 43.2545Z" stroke="black" stroke-opacity="0.72" stroke-width="0.5"/>
</g>
<defs>
<filter id="filter0_d_61_77" x="0" y="0" width="89" height="73" filterUnits="userSpaceOnUse" color-interpolation-filters="sRGB">
<feFlood flood-opacity="0" result="BackgroundImageFix"/>
<feColorMatrix in="SourceAlpha" type="matrix" values="0 0 0 0 0 0 0 0 0 0 0 0 0 0 0 0 0 0 127 0" result="hardAlpha"/>
<feOffset dy="4"/>
<feGaussianBlur stdDeviation="2"/>
<feComposite in2="hardAlpha" operator="out"/>
<feColorMatrix type="matrix" values="0 0 0 0 0 0 0 0 0 0 0 0 0 0 0 0 0 0 0.25 0"/>
<feBlend mode="normal" in2="BackgroundImageFix" result="effect1_dropShadow_61_77"/>
<feBlend mode="normal" in="SourceGraphic" in2="effect1_dropShadow_61_77" result="shape"/>
</filter>
</defs>
</svg>
